Coordinates
version=1
nRows=9
nColumns=24
inDegrees=yes

Units are S.I. units (second, meters, Newtons, ...)
If the header above contains a line with 'inDegrees', this indicates whether rotational values are in degrees (yes) or radians (no).

endheader
time	pelvis_tilt	pelvis_list	pelvis_rotation	pelvis_tx	pelvis_ty	pelvis_tz	hip_flexion_r	hip_adduction_r	hip_rotation_r	knee_angle_r	ankle_angle_r	subtalar_angle_r	mtp_angle_r	hip_flexion_l	hip_adduction_l	hip_rotation_l	knee_angle_l	ankle_angle_l	subtalar_angle_l	mtp_angle_l	lumbar_extension	lumbar_bending	lumbar_rotation
      1.88300000	     -2.75402121	      0.00000000	      0.00000000	      0.58758617	      0.99544168	      0.00000000	     28.11832581	      0.00000000	      0.00000000	     -6.71316948	     -0.88280771	      0.00000000	      0.00000000	    -18.19980361	      0.00000000	      0.00000000	     -0.60862165	      8.66599690	      0.00000000	      0.00000000	      0.00000000	      0.00000000	      0.00000000
      1.90000000	     -2.81144071	      0.00000000	      0.00000000	      0.59073545	      0.99543984	      0.00000000	     28.38724710	      0.00000000	      0.00000000	     -9.15737878	     -2.44388482	      0.00000000	      0.00000000	    -17.89054346	      0.00000000	      0.00000000	     -3.75341896	      8.95819280	      0.00000000	      0.00000000	      0.00000000	      0.00000000	      0.00000000
      1.91700000	     -2.73329267	      0.00000000	      0.00000000	      0.59392537	      0.99644191	      0.00000000	     28.64665982	      0.00000000	      0.00000000	    -12.06379583	     -3.39312476	      0.00000000	      0.00000000	    -17.32718017	      0.00000000	      0.00000000	     -7.55422122	      8.84299633	      0.00000000	      0.00000000	      0.00000000	      0.00000000	      0.00000000
      1.93300000	     -2.61978855	      0.00000000	      0.00000000	      0.59790888	      0.99802369	      0.00000000	     28.71588406	      0.00000000	      0.00000000	    -14.90829403	     -3.78377181	      0.00000000	      0.00000000	    -16.23573819	      0.00000000	      0.00000000	    -12.43341143	      8.44407518	      0.00000000	      0.00000000	      0.00000000	      0.00000000	      0.00000000
      1.95000000	     -2.53091974	      0.00000000	      0.00000000	      0.60121428	      0.99980239	      0.00000000	     28.65334849	      0.00000000	      0.00000000	    -17.45597678	     -3.84567368	      0.00000000	      0.00000000	    -14.28469784	      0.00000000	      0.00000000	    -18.73290254	      7.70980572	      0.00000000	      0.00000000	      0.00000000	      0.00000000	      0.00000000
      1.96700000	     -2.54833172	      0.00000000	      0.00000000	      0.60343920	      1.00119465	      0.00000000	     28.52723802	      0.00000000	      0.00000000	    -19.64427486	     -3.57744203	      0.00000000	      0.00000000	    -11.47416212	      0.00000000	      0.00000000	    -26.07242408	      6.14584686	      0.00000000	      0.00000000	      0.00000000	      0.00000000	      0.00000000
      1.98300000	     -2.62412580	      0.00000000	      0.00000000	      0.60548828	      1.00251371	      0.00000000	     28.23887628	      0.00000000	      0.00000000	    -21.47069731	     -2.86352413	      0.00000000	      0.00000000	     -8.28950113	      0.00000000	      0.00000000	    -33.47095952	      3.24175558	      0.00000000	      0.00000000	      0.00000000	      0.00000000	      0.00000000
      2.00000000	     -2.69339238	      0.00000000	      0.00000000	      0.60674353	      1.00384098	      0.00000000	     27.78985508	      0.00000000	      0.00000000	    -22.99662797	     -1.77789856	      0.00000000	      0.00000000	     -4.85225592	      0.00000000	      0.00000000	    -40.63130196	     -0.78551084	      0.00000000	      0.00000000	      0.00000000	      0.00000000	      0.00000000
      2.01700000	     -2.90161556	      0.00000000	      0.00000000	      0.60691149	      1.00503612	      0.00000000	     27.27642334	      0.00000000	      0.00000000	    -24.02540623	     -0.52139679	      0.00000000	      0.00000000	     -1.11986365	      0.00000000	      0.00000000	    -47.27732676	     -5.19128028	      0.00000000	      0.00000000	      0.00000000	      0.00000000	      0.00000000
